<svg xmlns="http://www.w3.org/2000/svg" width="45" height="54" viewBox="0 0 45 54" fill="none">
<path d="M1.70312 36.3973L1.83396 35.7868L2.15377 34.8855L2.02294 35.496L1.70312 36.3973Z" fill="#1B1464"/>
<path d="M3.03906 36.3957L3.18443 35.7852H6.93497L6.7896 36.4103L3.03906 36.3957Z" fill="#003F7C"/>
<path d="M1.33984 34.8999L1.48521 34.2893L2.15391 34.8853L2.02308 35.4959L1.33984 34.8999Z" fill="#1B1464"/>
<path d="M4.24563 30.2027L4.391 29.5776L3.18443 35.7849L3.03906 36.3955L4.24563 30.2027Z" fill="#003F7C"/>
<path d="M4.24609 30.203L4.39146 29.5779L11.3547 29.5924L11.2238 30.2175L4.24609 30.203Z" fill="#003F7C"/>
<path d="M11.2227 30.2176L11.3535 29.5925L28.5798 29.6361L28.4344 30.2467L11.2227 30.2176Z" fill="#003F7C"/>
<path d="M11.2227 30.2189L11.3535 29.5939L11.8914 28.1111L11.746 28.7216L11.2227 30.2189Z" fill="#003F7C"/>
<path d="M28.4352 30.2467L27.2286 36.454L6.7896 36.4104L3.03906 36.3959L4.24563 30.2031L11.2234 30.2177L28.4352 30.2467Z" fill="#003F7C"/>
<path d="M28.4331 30.2465L28.5785 29.636L27.3719 35.8433L27.2266 36.4538L28.4331 30.2465Z" fill="#003F7C"/>
<path d="M26.75 28.7652L26.8808 28.1401L28.5817 29.6374L28.4363 30.248L26.75 28.7652Z" fill="#003F7C"/>
<path d="M11.7461 28.7216L11.8915 28.1111L26.8791 28.1402L26.7483 28.7652L11.7461 28.7216Z" fill="#003F7C"/>
<path d="M26.7481 28.7636L28.4344 30.2464L11.2227 30.2173L11.746 28.72L26.7481 28.7636Z" fill="#003F7C"/>
<path d="M10.8438 14.6928L10.9891 14.0823L16.8475 14.0968L16.7021 14.7074L10.8438 14.6928Z" fill="#003F7C"/>
<path d="M12.0503 8.49813L12.1957 7.87305L10.9891 14.0803L10.8438 14.6909L12.0503 8.49813Z" fill="#003F7C"/>
<svg width="85" height="54" viewBox="0 0 85 54" fill="none" xmlns="http://www.w3.org/2000/svg">
<path d="M15.8145 16.1843H13.1092C12.8977 16.1843 12.7418 16.1398 12.6416 16.0507C12.5525 15.9505 12.508 15.7947 12.508 15.5831V7.38361H10.0532C9.84162 7.38361 9.68576 7.33908 9.58556 7.25002C9.4965 7.14982 9.45196 6.99396 9.45196 6.78243V4.76177C9.45196 4.55024 9.4965 4.39995 9.58556 4.31088C9.68576 4.21068 9.84162 4.16058 10.0532 4.16058H18.8706C19.0821 4.16058 19.2324 4.21068 19.3215 4.31088C19.4217 4.39995 19.4718 4.55024 19.4718 4.76177V6.78243C19.4718 6.99396 19.4217 7.14982 19.3215 7.25002C19.2324 7.33908 19.0821 7.38361 18.8706 7.38361H16.4157V15.5831C16.4157 15.7947 16.3656 15.9505 16.2654 16.0507C16.1764 16.1398 16.0261 16.1843 15.8145 16.1843ZM24.7697 16.1843C24.5582 16.1843 24.4023 16.1398 24.3021 16.0507C24.2131 15.9505 24.1685 15.7947 24.1685 15.5831V13.5959C24.1685 13.3844 24.2131 13.2341 24.3021 13.145C24.4023 13.0448 24.5582 12.9947 24.7697 12.9947H26.423V7.38361H24.7697C24.5582 7.38361 24.4023 7.33908 24.3021 7.25002C24.2131 7.14982 24.1685 6.99396 24.1685 6.78243V4.76177C24.1685 4.55024 24.2131 4.39995 24.3021 4.31088C24.4023 4.21068 24.5582 4.16058 24.7697 4.16058H31.8838C32.0953 4.16058 32.2456 4.21068 32.3347 4.31088C32.4348 4.39995 32.4849 4.55024 32.4849 4.76177V6.78243C32.4849 6.99396 32.4348 7.14982 32.3347 7.25002C32.2456 7.33908 32.0953 7.38361 31.8838 7.38361H30.2639V12.9947H31.8838C32.0953 12.9947 32.2456 13.0448 32.3347 13.145C32.4348 13.2341 32.4849 13.3844 32.4849 13.5959V15.5831C32.4849 15.7947 32.4348 15.9505 32.3347 16.0507C32.2456 16.1398 32.0953 16.1843 31.8838 16.1843H24.7697ZM43.5646 16.1843H40.8593C40.6478 16.1843 40.4919 16.1398 40.3917 16.0507C40.3026 15.9505 40.2581 15.7947 40.2581 15.5831V7.38361H37.8033C37.5917 7.38361 37.4359 7.33908 37.3357 7.25002C37.2466 7.14982 37.2021 6.99396 37.2021 6.78243V4.76177C37.2021 4.55024 37.2466 4.39995 37.3357 4.31088C37.4359 4.21068 37.5917 4.16058 37.8033 4.16058H46.6207C46.8322 4.16058 46.9825 4.21068 47.0716 4.31088C47.1718 4.39995 47.2219 4.55024 47.2219 4.76177V6.78243C47.2219 6.99396 47.1718 7.14982 47.0716 7.25002C46.9825 7.33908 46.8322 7.38361 46.6207 7.38361H44.1658V15.5831C44.1658 15.7947 44.1157 15.9505 44.0155 16.0507C43.9265 16.1398 43.7762 16.1843 43.5646 16.1843ZM61.2871 16.1843H52.787C52.5755 16.1843 52.4196 16.1398 52.3194 16.0507C52.2304 15.9505 52.1858 15.7947 52.1858 15.5831V4.76177C52.1858 4.55024 52.2304 4.39995 52.3194 4.31088C52.4196 4.21068 52.5755 4.16058 52.787 4.16058H55.3755C55.587 4.16058 55.7373 4.21068 55.8263 4.31088C55.9265 4.39995 55.9766 4.55024 55.9766 4.76177V13.0281H58.2645V10.3228C58.2645 10.1112 58.309 9.96093 58.3981 9.87186C58.4983 9.77166 58.6542 9.72156 58.8657 9.72156H61.2871C61.4987 9.72156 61.649 9.77166 61.738 9.87186C61.8382 9.96093 61.8883 10.1112 61.8883 10.3228V15.5831C61.8883 15.7947 61.8382 15.9505 61.738 16.0507C61.649 16.1398 61.4987 16.1843 61.2871 16.1843ZM75.487 16.1843H67.7384C67.5269 16.1843 67.371 16.1398 67.2708 16.0507C67.1818 15.9505 67.1372 15.7947 67.1372 15.5831V4.76177C67.1372 4.55024 67.1818 4.39995 67.2708 4.31088C67.371 4.21068 67.5269 4.16058 67.7384 4.16058H75.487C75.6986 4.16058 75.8489 4.21068 75.9379 4.31088C76.0381 4.39995 76.0882 4.55024 76.0882 4.76177V6.71563C76.0882 6.92716 76.0381 7.08302 75.9379 7.18322C75.8489 7.27228 75.6986 7.31682 75.487 7.31682H70.8779V8.60269H74.1344C74.3459 8.60269 74.4962 8.65279 74.5853 8.75299C74.6855 8.84205 74.7356 8.99235 74.7356 9.20388V10.9907C74.7356 11.2023 74.6855 11.3581 74.5853 11.4583C74.4962 11.5474 74.3459 11.5919 74.1344 11.5919H70.8779V13.0281H75.487C75.6986 13.0281 75.8489 13.0782 75.9379 13.1784C76.0381 13.2675 76.0882 13.4178 76.0882 13.6293V15.5831C76.0882 15.7947 76.0381 15.9505 75.9379 16.0507C75.8489 16.1398 75.6986 16.1843 75.487 16.1843Z" fill="#003F7C"/>
<path d="M7.81453 37.2976H5.10919C4.89766 37.2976 4.74179 37.2531 4.6416 37.164C4.55253 37.0638 4.508 36.9079 4.508 36.6964V28.4969H2.05315C1.84162 28.4969 1.68576 28.4524 1.58556 28.3633C1.4965 28.2631 1.45196 28.1072 1.45196 27.8957V25.8751C1.45196 25.6635 1.4965 25.5132 1.58556 25.4242C1.68576 25.324 1.84162 25.2739 2.05315 25.2739H10.8706C11.0821 25.2739 11.2324 25.324 11.3215 25.4242C11.4217 25.5132 11.4718 25.6635 11.4718 25.8751V27.8957C11.4718 28.1072 11.4217 28.2631 11.3215 28.3633C11.2324 28.4524 11.0821 28.4969 10.8706 28.4969H8.41572V36.6964C8.41572 36.9079 8.36562 37.0638 8.26542 37.164C8.17635 37.2531 8.02606 37.2976 7.81453 37.2976ZM22.1136 37.2976H14.365C14.1534 37.2976 13.9976 37.2531 13.8974 37.164C13.8083 37.0638 13.7638 36.9079 13.7638 36.6964V25.8751C13.7638 25.6635 13.8083 25.5132 13.8974 25.4242C13.9976 25.324 14.1534 25.2739 14.365 25.2739H22.1136C22.3251 25.2739 22.4754 25.324 22.5645 25.4242C22.6647 25.5132 22.7148 25.6635 22.7148 25.8751V27.8289C22.7148 28.0404 22.6647 28.1963 22.5645 28.2965C22.4754 28.3856 22.3251 28.4301 22.1136 28.4301H17.5045V29.716H20.7609C20.9725 29.716 21.1228 29.7661 21.2118 29.8663C21.312 29.9553 21.3621 30.1056 21.3621 30.3172V32.104C21.3621 32.3155 21.312 32.4714 21.2118 32.5716C21.1228 32.6607 20.9725 32.7052 20.7609 32.7052H17.5045V34.1414H22.1136C22.3251 34.1414 22.4754 34.1915 22.5645 34.2917C22.6647 34.3807 22.7148 34.531 22.7148 34.7426V36.6964C22.7148 36.9079 22.6647 37.0638 22.5645 37.164C22.4754 37.2531 22.3251 37.2976 22.1136 37.2976ZM33.2759 37.2976H29.2012C27.8095 37.2976 26.7741 37.0193 26.095 36.4626C25.427 35.906 25.093 35.0487 25.093 33.8909V28.6973C25.093 27.5394 25.427 26.6822 26.095 26.1255C26.7741 25.5578 27.8095 25.2739 29.2012 25.2739H33.2759C33.4874 25.2739 33.6377 25.324 33.7268 25.4242C33.827 25.5132 33.8771 25.6635 33.8771 25.8751V27.8957C33.8771 28.1072 33.827 28.2631 33.7268 28.3633C33.6377 28.4524 33.4874 28.4969 33.2759 28.4969H29.9192C29.5741 28.4969 29.3181 28.5693 29.1511 28.714C28.9841 28.8476 28.9006 29.0536 28.9006 29.3319V33.3064C28.9006 33.5847 28.9841 33.7907 29.1511 33.9243C29.3181 34.0467 29.5741 34.108 29.9192 34.108H33.2759C33.4874 34.108 33.6377 34.1581 33.7268 34.2583C33.827 34.3473 33.8771 34.4976 33.8771 34.7092V36.6964C33.8771 36.9079 33.827 37.0638 33.7268 37.164C33.6377 37.2531 33.4874 37.2976 33.2759 37.2976ZM39.6206 37.2976H37.0321C36.8206 37.2976 36.6647 37.2531 36.5645 37.164C36.4755 37.0638 36.4309 36.9079 36.4309 36.6964V25.8751C36.4309 25.6635 36.4755 25.5132 36.5645 25.4242C36.6647 25.324 36.8206 25.2739 37.0321 25.2739H39.6206C39.8321 25.2739 39.9824 25.324 40.0715 25.4242C40.1717 25.5132 40.2218 25.6635 40.2218 25.8751V29.4989H43.0106V25.8751C43.0106 25.6635 43.0551 25.5132 43.1442 25.4242C43.2444 25.324 43.4002 25.2739 43.6118 25.2739H46.2002C46.4118 25.2739 46.562 25.324 46.6511 25.4242C46.7513 25.5132 46.8014 25.6635 46.8014 25.8751V36.6964C46.8014 36.9079 46.7513 37.0638 46.6511 37.164C46.562 37.2531 46.4118 37.2976 46.2002 37.2976H43.6118C43.4002 37.2976 43.2444 37.2531 43.1442 37.164C43.0551 37.0638 43.0106 36.9079 43.0106 36.6964V32.9891H40.2218V36.6964C40.2218 36.9079 40.1717 37.0638 40.0715 37.164C39.9824 37.2531 39.8321 37.2976 39.6206 37.2976ZM52.8766 37.2976H50.3716C50.1601 37.2976 50.0042 37.2531 49.904 37.164C49.815 37.0638 49.7704 36.9079 49.7704 36.6964V25.8751C49.7704 25.6635 49.815 25.5132 49.904 25.4242C50.0042 25.324 50.1601 25.2739 50.3716 25.2739H52.1084C52.3199 25.2739 52.498 25.3073 52.6428 25.3741C52.7986 25.4409 52.9489 25.5578 53.0937 25.7248L56.3334 29.4321V25.8751C56.3334 25.6635 56.3779 25.5132 56.467 25.4242C56.5672 25.324 56.723 25.2739 56.9346 25.2739H59.4395C59.651 25.2739 59.8013 25.324 59.8904 25.4242C59.9906 25.5132 60.0407 25.6635 60.0407 25.8751V36.6964C60.0407 36.9079 59.9906 37.0638 59.8904 37.164C59.8013 37.2531 59.651 37.2976 59.4395 37.2976H56.9346C56.723 37.2976 56.5672 37.2531 56.467 37.164C56.3779 37.0638 56.3334 36.9079 56.3334 36.6964V34.6424L53.4777 31.1855V36.6964C53.4777 36.9079 53.4276 37.0638 53.3274 37.164C53.2384 37.2531 53.0881 37.2976 52.8766 37.2976ZM63.3461 37.2976C63.1345 37.2976 62.9787 37.2531 62.8785 37.164C62.7894 37.0638 62.7449 36.9079 62.7449 36.6964V34.7092C62.7449 34.4976 62.7894 34.3473 62.8785 34.2583C62.9787 34.1581 63.1345 34.108 63.3461 34.108H64.9993V28.4969H63.3461C63.1345 28.4969 62.9787 28.4524 62.8785 28.3633C62.7894 28.2631 62.7449 28.1072 62.7449 27.8957V25.8751C62.7449 25.6635 62.7894 25.5132 62.8785 25.4242C62.9787 25.324 63.1345 25.2739 63.3461 25.2739H70.4601C70.6716 25.2739 70.8219 25.324 70.911 25.4242C71.0112 25.5132 71.0613 25.6635 71.0613 25.8751V27.8957C71.0613 28.1072 71.0112 28.2631 70.911 28.3633C70.8219 28.4524 70.6716 28.4969 70.4601 28.4969H68.8402V34.108H70.4601C70.6716 34.108 70.8219 34.1581 70.911 34.2583C71.0112 34.3473 71.0613 34.4976 71.0613 34.7092V36.6964C71.0613 36.9079 71.0112 37.0638 70.911 37.164C70.8219 37.2531 70.6716 37.2976 70.4601 37.2976H63.3461ZM80.0702 38.8006H77.4985C77.287 38.8006 77.1311 38.7505 77.0309 38.6503C76.9418 38.5612 76.8973 38.4109 76.8973 38.1994V37.2809C75.6059 37.0916 74.7319 36.7076 74.2755 36.1286C73.8301 35.5386 73.6075 34.8261 73.6075 33.9911V28.4468C73.6075 27.9347 73.6798 27.4727 73.8246 27.0607C73.9804 26.6377 74.2476 26.2758 74.6261 25.9752C75.0158 25.6747 75.5502 25.4409 76.2293 25.2739C76.9084 25.1069 77.7657 25.0234 78.8011 25.0234C79.8364 25.0234 80.6881 25.1069 81.3561 25.2739C82.0352 25.4409 82.564 25.6747 82.9426 25.9752C83.3322 26.2758 83.5994 26.6377 83.7441 27.0607C83.9 27.4727 83.9779 27.9347 83.9779 28.4468V33.9911C83.9779 34.4141 83.9278 34.8094 83.8276 35.1768C83.7274 35.533 83.5549 35.8503 83.31 36.1286C83.065 36.407 82.7255 36.6463 82.2913 36.8467C81.8682 37.0471 81.3283 37.1918 80.6714 37.2809V38.1994C80.6714 38.4109 80.6213 38.5612 80.5211 38.6503C80.4321 38.7505 80.2818 38.8006 80.0702 38.8006ZM77.3983 33.6237C77.3983 33.8463 77.4818 34.0356 77.6488 34.1915C77.8158 34.3362 78.1999 34.4086 78.8011 34.4086C79.4022 34.4086 79.7863 34.3362 79.9533 34.1915C80.1203 34.0356 80.2038 33.8463 80.2038 33.6237V29.0647C80.2038 28.8532 80.1203 28.675 79.9533 28.5303C79.7863 28.3744 79.4022 28.2965 78.8011 28.2965C78.1999 28.2965 77.8158 28.3744 77.6488 28.5303C77.4818 28.675 77.3983 28.8532 77.3983 29.0647V33.6237Z" fill="#003F7C"/>
<path d="M14.9202 44.8056H15.7362L17.6265 49.8159H16.7762L16.3625 48.6696H14.2977L13.8802 49.8159H13.0261L14.9202 44.8056ZM14.5558 47.9598H16.1044L15.3339 45.7773H15.3225L14.5558 47.9598ZM19.6494 49.2504C19.829 49.2504 19.9745 49.2213 20.0859 49.1631C20.1997 49.1023 20.2731 49.0581 20.306 49.0302L20.6894 49.5996C20.659 49.6249 20.5958 49.6628 20.4996 49.7134C20.4034 49.7615 20.2807 49.8058 20.1314 49.8463C19.9847 49.8868 19.8177 49.907 19.6304 49.907C19.3217 49.907 19.0408 49.8425 18.7878 49.7134C18.5372 49.5819 18.3361 49.3933 18.1843 49.1479C18.035 48.8999 17.9603 48.6026 17.9603 48.2559C17.9603 47.9067 18.035 47.6094 18.1843 47.3639C18.3361 47.1185 18.5372 46.9312 18.7878 46.8022C19.0408 46.6731 19.3217 46.6086 19.6304 46.6086C19.8151 46.6086 19.9796 46.6301 20.1238 46.6731C20.2706 46.7136 20.3921 46.7604 20.4882 46.8136C20.5844 46.8667 20.6489 46.9084 20.6818 46.9388L20.2908 47.5082C20.2731 47.4904 20.2364 47.4626 20.1808 47.4247C20.1276 47.3842 20.0568 47.3475 19.9682 47.3146C19.8796 47.2817 19.7734 47.2652 19.6494 47.2652C19.4976 47.2652 19.3521 47.3057 19.2129 47.3867C19.0737 47.4677 18.9598 47.5828 18.8713 47.7321C18.7827 47.8789 18.7384 48.0535 18.7384 48.2559C18.7384 48.4583 18.7827 48.6342 18.8713 48.7835C18.9598 48.9328 19.0737 49.0479 19.2129 49.1289C19.3521 49.2099 19.4976 49.2504 19.6494 49.2504ZM22.8223 49.2504C23.002 49.2504 23.1475 49.2213 23.2588 49.1631C23.3727 49.1023 23.4461 49.0581 23.479 49.0302L23.8623 49.5996C23.832 49.6249 23.7687 49.6628 23.6725 49.7134C23.5764 49.7615 23.4537 49.8058 23.3044 49.8463C23.1576 49.8868 22.9906 49.907 22.8033 49.907C22.4946 49.907 22.2137 49.8425 21.9607 49.7134C21.7102 49.5819 21.509 49.3933 21.3572 49.1479C21.2079 48.8999 21.1332 48.6026 21.1332 48.2559C21.1332 47.9067 21.2079 47.6094 21.3572 47.3639C21.509 47.1185 21.7102 46.9312 21.9607 46.8022C22.2137 46.6731 22.4946 46.6086 22.8033 46.6086C22.9881 46.6086 23.1525 46.6301 23.2968 46.6731C23.4435 46.7136 23.565 46.7604 23.6612 46.8136C23.7573 46.8667 23.8218 46.9084 23.8547 46.9388L23.4638 47.5082C23.4461 47.4904 23.4094 47.4626 23.3537 47.4247C23.3006 47.3842 23.2297 47.3475 23.1411 47.3146C23.0526 47.2817 22.9463 47.2652 22.8223 47.2652C22.6705 47.2652 22.525 47.3057 22.3858 47.3867C22.2466 47.4677 22.1328 47.5828 22.0442 47.7321C21.9556 47.8789 21.9114 48.0535 21.9114 48.2559C21.9114 48.4583 21.9556 48.6342 22.0442 48.7835C22.1328 48.9328 22.2466 49.0479 22.3858 49.1289C22.525 49.2099 22.6705 49.2504 22.8223 49.2504ZM25.2209 48.2293C25.2209 48.533 25.2829 48.7746 25.4069 48.9543C25.5334 49.134 25.7321 49.2238 26.0028 49.2238C26.2761 49.2238 26.4748 49.134 26.5988 48.9543C26.7227 48.7746 26.7847 48.533 26.7847 48.2293V46.6997H27.5894V48.3318C27.5894 48.6456 27.5274 48.9214 27.4034 49.1593C27.2794 49.3946 27.0998 49.5781 26.8645 49.7096C26.6291 49.8412 26.3419 49.907 26.0028 49.907C25.6663 49.907 25.3803 49.8412 25.145 49.7096C24.9097 49.5781 24.73 49.3946 24.606 49.1593C24.482 48.9214 24.42 48.6456 24.42 48.3318V46.6997H25.2209V48.2293ZM29.2021 49.8159H28.3936V46.6997H29.2021V47.2197H29.1831C29.2008 47.1564 29.2489 47.078 29.3274 46.9844C29.4083 46.8882 29.5197 46.8022 29.6614 46.7263C29.8031 46.6478 29.9739 46.6086 30.1738 46.6086C30.318 46.6086 30.4471 46.6288 30.561 46.6693C30.6748 46.7098 30.7558 46.7503 30.8039 46.7908L30.4774 47.4588C30.4446 47.4183 30.3826 47.3791 30.2915 47.3411C30.2029 47.3007 30.0928 47.2804 29.9612 47.2804C29.7968 47.2804 29.6576 47.3285 29.5437 47.4247C29.4324 47.5208 29.3476 47.6359 29.2894 47.7701C29.2312 47.9042 29.2021 48.0294 29.2021 48.1458V49.8159ZM33.5974 49.8159V49.239C33.5772 49.2997 33.519 49.3832 33.4228 49.4895C33.3292 49.5958 33.2001 49.6919 33.0357 49.778C32.8737 49.864 32.6814 49.907 32.4587 49.907C32.1677 49.907 31.9058 49.8374 31.673 49.6983C31.4402 49.5591 31.2568 49.3655 31.1226 49.1175C30.9885 48.8695 30.9215 48.5836 30.9215 48.2597C30.9215 47.9358 30.9885 47.6499 31.1226 47.4019C31.2568 47.1539 31.4402 46.9603 31.673 46.8211C31.9058 46.6794 32.1677 46.6086 32.4587 46.6086C32.6763 46.6086 32.8649 46.6465 33.0243 46.7225C33.1837 46.7984 33.3115 46.8857 33.4076 46.9844C33.5063 47.083 33.5671 47.1691 33.5898 47.2425V46.6997H34.3945V49.8159H33.5974ZM31.7224 48.2597C31.7224 48.4596 31.7666 48.6342 31.8552 48.7835C31.9438 48.9328 32.0589 49.0479 32.2006 49.1289C32.3449 49.2099 32.4992 49.2504 32.6637 49.2504C32.8408 49.2504 32.9977 49.2086 33.1343 49.1251C33.2735 49.0416 33.3823 48.9265 33.4608 48.7797C33.5418 48.6304 33.5822 48.4571 33.5822 48.2597C33.5822 48.0623 33.5418 47.8903 33.4608 47.7435C33.3823 47.5942 33.2735 47.4778 33.1343 47.3943C32.9977 47.3083 32.8408 47.2652 32.6637 47.2652C32.4992 47.2652 32.3449 47.307 32.2006 47.3905C32.0589 47.4715 31.9438 47.5866 31.8552 47.7359C31.7666 47.8852 31.7224 48.0598 31.7224 48.2597ZM34.964 46.6997H35.5485V45.4205H36.3532V46.6997H37.1237V47.3829H36.3532V48.7152C36.3532 48.8822 36.381 49.0074 36.4367 49.0909C36.4949 49.1745 36.5771 49.2162 36.6834 49.2162C36.772 49.2162 36.8416 49.1998 36.8922 49.1669C36.9453 49.134 36.9769 49.1112 36.9871 49.0985L37.2869 49.6869C37.2717 49.702 37.2275 49.7274 37.1541 49.7628C37.0807 49.7982 36.9858 49.8311 36.8694 49.8615C36.753 49.8918 36.6202 49.907 36.4709 49.907C36.2077 49.907 35.9875 49.8286 35.8104 49.6717C35.6358 49.5148 35.5485 49.2693 35.5485 48.9353V47.3829H34.964V46.6997ZM38.3749 48.4495C38.38 48.614 38.4192 48.762 38.4926 48.8936C38.566 49.0252 38.6735 49.1289 38.8152 49.2048C38.9594 49.2782 39.1353 49.3149 39.3428 49.3149C39.5225 49.3149 39.6768 49.2909 39.8059 49.2428C39.9375 49.1922 40.0463 49.1327 40.1323 49.0644C40.2183 48.9935 40.2816 48.9277 40.3221 48.867L40.6827 49.3566C40.6042 49.4629 40.5055 49.5578 40.3866 49.6413C40.2677 49.7248 40.1197 49.7893 39.9425 49.8349C39.7679 49.883 39.5516 49.907 39.2935 49.907C38.9544 49.907 38.6596 49.8374 38.4091 49.6983C38.1586 49.5591 37.9637 49.363 37.8245 49.1099C37.6879 48.8569 37.6196 48.5608 37.6196 48.2217C37.6196 47.9181 37.6828 47.6448 37.8094 47.4019C37.9359 47.1564 38.1193 46.9628 38.3597 46.8211C38.6027 46.6794 38.8937 46.6086 39.2327 46.6086C39.549 46.6086 39.8236 46.6718 40.0564 46.7984C40.2892 46.9249 40.4689 47.1071 40.5954 47.3449C40.7244 47.5803 40.789 47.8649 40.789 48.199C40.789 48.2192 40.7877 48.261 40.7852 48.3242C40.7852 48.3875 40.7826 48.4292 40.7776 48.4495H38.3749ZM40.0298 47.8574C40.0273 47.7764 39.9995 47.684 39.9463 47.5803C39.8957 47.4765 39.8135 47.3867 39.6996 47.3108C39.5857 47.2323 39.4339 47.1931 39.2441 47.1931C39.0493 47.1931 38.8911 47.2311 38.7697 47.307C38.6482 47.3804 38.5584 47.4689 38.5002 47.5727C38.442 47.6739 38.4078 47.7688 38.3977 47.8574H40.0298ZM43.2321 48.533C43.2321 48.3331 43.2687 48.1572 43.3421 48.0054C43.418 47.851 43.5155 47.7182 43.6344 47.6068C43.7533 47.493 43.8773 47.3981 44.0064 47.3222C44.1379 47.2437 44.2594 47.183 44.3708 47.14C44.4821 47.0944 44.5681 47.0628 44.6289 47.0451C44.5808 47.0122 44.5213 46.9591 44.4505 46.8857C44.3796 46.8123 44.31 46.7237 44.2417 46.62C44.1734 46.5137 44.1164 46.3973 44.0709 46.2708C44.0253 46.1442 44.0026 46.0127 44.0026 45.876C44.0026 45.6635 44.0608 45.4699 44.1772 45.2953C44.2936 45.1207 44.4581 44.9802 44.6706 44.874C44.8857 44.7677 45.1413 44.7146 45.4373 44.7146C45.7283 44.7146 45.9738 44.7664 46.1737 44.8702C46.3761 44.9714 46.5292 45.1106 46.633 45.2877C46.7367 45.4623 46.7886 45.6622 46.7886 45.8874C46.7886 46.0797 46.7456 46.2505 46.6595 46.3998C46.576 46.5466 46.4723 46.6744 46.3483 46.7832C46.2243 46.8895 46.1016 46.978 45.9801 47.0489C45.8586 47.1197 45.7612 47.1729 45.6878 47.2083L46.6519 48.2521C46.7127 48.1939 46.7974 48.1003 46.9063 47.9712C47.0151 47.8396 47.1251 47.6866 47.2365 47.512L47.7717 47.9826C47.7362 48.0433 47.6844 48.1218 47.616 48.2179C47.5477 48.3116 47.4731 48.4065 47.3921 48.5026C47.3111 48.5962 47.2352 48.6747 47.1644 48.738L48.1854 49.8159H47.1719L46.5722 49.1745C46.4407 49.2934 46.2888 49.4098 46.1168 49.5237C45.9447 49.635 45.7486 49.7274 45.5284 49.8007C45.3108 49.8716 45.0666 49.907 44.7959 49.907C44.5074 49.907 44.2442 49.8526 44.0064 49.7438C43.7685 49.6325 43.58 49.4743 43.4408 49.2693C43.3016 49.0644 43.2321 48.8189 43.2321 48.533ZM45.0312 47.5309C44.9932 47.5436 44.9376 47.5664 44.8642 47.5993C44.7933 47.6296 44.7149 47.6701 44.6289 47.7207C44.5428 47.7688 44.4618 47.8295 44.3859 47.9029C44.31 47.9738 44.2468 48.056 44.1961 48.1496C44.1455 48.2432 44.1202 48.3495 44.1202 48.4685C44.1202 48.6228 44.1569 48.7519 44.2303 48.8556C44.3037 48.9594 44.4011 49.0365 44.5226 49.0872C44.6466 49.1378 44.7807 49.1631 44.9249 49.1631C45.0818 49.1631 45.2336 49.1352 45.3804 49.0796C45.5297 49.0239 45.6638 48.9568 45.7827 48.8784C45.9042 48.7974 46.0004 48.719 46.0712 48.6431L45.0312 47.5309ZM45.4259 45.3408C45.2893 45.3408 45.1729 45.3674 45.0767 45.4205C44.9806 45.4737 44.9072 45.542 44.8566 45.6255C44.806 45.709 44.7807 45.795 44.7807 45.8836C44.7807 45.9772 44.8035 46.0734 44.849 46.1721C44.8971 46.2708 44.9515 46.3631 45.0122 46.4492C45.0755 46.5352 45.1324 46.6073 45.183 46.6655C45.2362 46.7212 45.2665 46.7528 45.2741 46.7604C45.3197 46.7478 45.3855 46.7199 45.4715 46.6769C45.5575 46.6339 45.6448 46.577 45.7334 46.5061C45.8245 46.4327 45.9017 46.3454 45.9649 46.2442C46.0307 46.1405 46.0636 46.0203 46.0636 45.8836C46.0636 45.7293 46.0054 45.6002 45.889 45.4965C45.7726 45.3927 45.6183 45.3408 45.4259 45.3408ZM51.2418 45.5534L51.2949 45.561V49.8159H50.4978V44.8056H51.61L54.0316 49.0568L53.9822 49.0682V44.8056H54.7755V49.8159H53.6596L51.2418 45.5534ZM55.8033 49.8159V46.6997H56.6118V49.8159H55.8033ZM56.217 45.7659C56.0804 45.7659 55.9627 45.7166 55.864 45.6179C55.7679 45.5192 55.7198 45.4016 55.7198 45.2649C55.7198 45.1283 55.7679 45.0106 55.864 44.9119C55.9627 44.8107 56.0804 44.7601 56.217 44.7601C56.3081 44.7601 56.3916 44.7841 56.4675 44.8322C56.546 44.8778 56.608 44.9385 56.6535 45.0144C56.7016 45.0878 56.7256 45.1713 56.7256 45.2649C56.7256 45.4016 56.6763 45.5192 56.5776 45.6179C56.4789 45.7166 56.3587 45.7659 56.217 45.7659ZM61.4646 46.6086C61.6974 46.6086 61.8973 46.6579 62.0643 46.7566C62.2338 46.8553 62.3641 47.0071 62.4552 47.2121C62.5489 47.4171 62.5957 47.679 62.5957 47.9978V49.8159H61.7948V48.142C61.7948 47.8409 61.7518 47.6119 61.6657 47.455C61.5822 47.2981 61.4241 47.2197 61.1913 47.2197C61.0648 47.2197 60.9458 47.2538 60.8345 47.3222C60.7231 47.3905 60.6333 47.493 60.565 47.6296C60.4992 47.7637 60.4663 47.9345 60.4663 48.142V49.8159H59.7148V48.142C59.7148 47.8409 59.6629 47.6119 59.5591 47.455C59.4579 47.2981 59.3061 47.2197 59.1037 47.2197C58.9746 47.2197 58.8557 47.2526 58.7469 47.3184C58.6381 47.3842 58.5508 47.4854 58.485 47.622C58.4192 47.7587 58.3863 47.932 58.3863 48.142V49.8159H57.5816V46.6997H58.3863V47.1665C58.4141 47.0881 58.4761 47.0059 58.5723 46.9198C58.671 46.8338 58.7937 46.7604 58.9405 46.6997C59.0872 46.639 59.2479 46.6086 59.4225 46.6086C59.6123 46.6086 59.7692 46.644 59.8932 46.7149C60.0197 46.7832 60.1196 46.8692 60.193 46.973C60.2689 47.0767 60.3246 47.1805 60.36 47.2842C60.3955 47.1805 60.4638 47.0767 60.565 46.973C60.6687 46.8692 60.7978 46.7832 60.9522 46.7149C61.1065 46.644 61.2773 46.6086 61.4646 46.6086ZM63.4225 49.8159V44.5931H64.2347V47.2425C64.2525 47.1665 64.3119 47.0792 64.4131 46.9806C64.5144 46.8819 64.6497 46.7958 64.8193 46.7225C64.9888 46.6465 65.1824 46.6086 65.4 46.6086C65.6935 46.6086 65.9529 46.6794 66.1781 46.8211C66.4033 46.9603 66.5792 47.1539 66.7057 47.4019C66.8348 47.6499 66.8993 47.9358 66.8993 48.2597C66.8993 48.5836 66.8348 48.8695 66.7057 49.1175C66.5792 49.3655 66.4033 49.5591 66.1781 49.6983C65.9529 49.8374 65.6935 49.907 65.4 49.907C65.2001 49.907 65.0167 49.8703 64.8496 49.7969C64.6852 49.721 64.5485 49.6312 64.4397 49.5274C64.3309 49.4237 64.2588 49.3275 64.2234 49.239V49.8159H63.4225ZM66.0984 48.2597C66.0984 48.0598 66.0567 47.8852 65.9732 47.7359C65.8897 47.5866 65.7796 47.4715 65.6429 47.3905C65.5063 47.307 65.3557 47.2652 65.1913 47.2652C65.0141 47.2652 64.8534 47.3083 64.7092 47.3943C64.565 47.4778 64.4498 47.5942 64.3638 47.7435C64.2778 47.8903 64.2347 48.0623 64.2347 48.2597C64.2347 48.4571 64.2778 48.6304 64.3638 48.7797C64.4498 48.9265 64.565 49.0416 64.7092 49.1251C64.8534 49.2086 65.0141 49.2504 65.1913 49.2504C65.3557 49.2504 65.5063 49.2099 65.6429 49.1289C65.7796 49.0479 65.8897 48.9328 65.9732 48.7835C66.0567 48.6342 66.0984 48.4596 66.0984 48.2597ZM68.3202 49.8159H67.5042V44.5931H68.3202V49.8159ZM69.7632 48.4495C69.7683 48.614 69.8075 48.762 69.8809 48.8936C69.9543 49.0252 70.0618 49.1289 70.2035 49.2048C70.3478 49.2782 70.5236 49.3149 70.7311 49.3149C70.9108 49.3149 71.0652 49.2909 71.1942 49.2428C71.3258 49.1922 71.4346 49.1327 71.5206 49.0644C71.6067 48.9935 71.6699 48.9277 71.7104 48.867L72.071 49.3566C71.9926 49.4629 71.8939 49.5578 71.7749 49.6413C71.656 49.7248 71.508 49.7893 71.3308 49.8349C71.1562 49.883 70.9399 49.907 70.6818 49.907C70.3427 49.907 70.0479 49.8374 69.7974 49.6983C69.5469 49.5591 69.352 49.363 69.2129 49.1099C69.0762 48.8569 69.0079 48.5608 69.0079 48.2217C69.0079 47.9181 69.0712 47.6448 69.1977 47.4019C69.3242 47.1564 69.5077 46.9628 69.7481 46.8211C69.991 46.6794 70.282 46.6086 70.6211 46.6086C70.9374 46.6086 71.2119 46.6718 71.4447 46.7984C71.6775 46.9249 71.8572 47.1071 71.9837 47.3449C72.1128 47.5803 72.1773 47.8649 72.1773 48.199C72.1773 48.2192 72.176 48.261 72.1735 48.3242C72.1735 48.3875 72.171 48.4292 72.1659 48.4495H69.7632ZM71.4182 47.8574C71.4156 47.7764 71.3878 47.684 71.3346 47.5803C71.284 47.4765 71.2018 47.3867 71.0879 47.3108C70.9741 47.2323 70.8222 47.1931 70.6324 47.1931C70.4376 47.1931 70.2795 47.2311 70.158 47.307C70.0365 47.3804 69.9467 47.4689 69.8885 47.5727C69.8303 47.6739 69.7961 47.7688 69.786 47.8574H71.4182Z" fill="#E63946"/>
</svg>
